<svg width="538" height="14" viewBox="0 0 538 14" fill="none" xmlns="http://www.w3.org/2000/svg">
<path d="M10 8.32031C10 8.52344 9.90625 8.92188 9.82813 9.10937C9.59375 9.625 8.60938 10 8.07031 10C7.54688 10 7.07031 9.78906 6.58594 9.60937C4.875 8.98437 3.01563 7.125 2.39063 5.41406C2.21094 4.92969 2 4.45312 2 3.92969C2 3.39062 2.375 2.40625 2.89063 2.17187C3.07813 2.09375 3.47656 2 3.67969 2C3.71875 2 3.76563 2 3.80469 2.01562C3.94531 2.0625 4.52344 3.20312 4.64844 3.42187C4.73438 3.57031 4.90625 3.75 4.90625 3.92969C4.90625 4.27344 3.88281 4.78125 3.88281 5.08594C3.88281 5.24219 4.02344 5.4375 4.10156 5.57812C4.67969 6.60937 5.39063 7.32031 6.42188 7.89844C6.5625 7.97656 6.75781 8.11719 6.91406 8.11719C7.21875 8.11719 7.72656 7.09375 8.07031 7.09375C8.25 7.09375 8.42969 7.26562 8.57813 7.35156C8.79688 7.47656 9.9375 8.05469 9.98438 8.19531C10 8.23437 10 8.28125 10 8.32031ZM12 2.25C12 1.00781 10.9922 -5.96046e-07 9.75 -5.96046e-07H2.25C1.00781 -5.96046e-07 0 1.00781 0 2.25V9.75C0 10.9922 1.00781 12 2.25 12H9.75C10.9922 12 12 10.9922 12 9.75V2.25ZM211.09 4.54687C210.855 4.80469 210.59 5.03125 210.309 5.22656C209.004 6.10937 207.691 7 206.418 7.92187C205.762 8.40625 204.949 9 204.098 9H204.09H204.082C203.23 9 202.418 8.40625 201.762 7.92187C200.488 6.99219 199.176 6.10937 197.879 5.22656C197.59 5.03125 197.324 4.80469 197.09 4.54687V10.75C197.09 11.4375 197.652 12 198.34 12H209.84C210.527 12 211.09 11.4375 211.09 10.75V4.54687ZM211.09 2.25C211.09 1.5625 210.52 1 209.84 1H198.34C197.504 1 197.09 1.65625 197.09 2.42187C197.09 3.13281 197.879 4.01562 198.434 4.39062C199.645 5.23437 200.871 6.07812 202.082 6.92969C202.59 7.28125 203.449 8 204.082 8H204.09H204.098C204.73 8 205.59 7.28125 206.098 6.92969C207.309 6.07812 208.535 5.23437 209.754 4.39062C210.441 3.91406 211.09 3.125 211.09 2.25ZM360.508 3.25C360.508 3.10937 360.398 3 360.258 3H359.758C359.617 3 359.508 3.10937 359.508 3.25V6H357.758C357.617 6 357.508 6.10937 357.508 6.25V6.75C357.508 6.89062 357.617 7 357.758 7H360.258C360.398 7 360.508 6.89062 360.508 6.75V3.25ZM363.758 6C363.758 8.34375 361.852 10.25 359.508 10.25C357.164 10.25 355.258 8.34375 355.258 6C355.258 3.65625 357.164 1.75 359.508 1.75C361.852 1.75 363.758 3.65625 363.758 6ZM365.508 6C365.508 2.6875 362.82 -5.96046e-07 359.508 -5.96046e-07C356.195 -5.96046e-07 353.508 2.6875 353.508 6C353.508 9.3125 356.195 12 359.508 12C362.82 12 365.508 9.3125 365.508 6Z" fill="#40A5A2"/>
<path d="M19.2539 11.1193C18.6119 11.1193 18.065 10.9446 17.6133 10.5952C17.1616 10.2429 16.8164 9.73295 16.5778 9.06534C16.3391 8.39489 16.2198 7.58523 16.2198 6.63636C16.2198 5.69318 16.3391 4.88778 16.5778 4.22017C16.8192 3.54972 17.1658 3.03835 17.6175 2.68608C18.0721 2.33097 18.6175 2.15341 19.2539 2.15341C19.8903 2.15341 20.4343 2.33097 20.886 2.68608C21.3406 3.03835 21.6871 3.54972 21.9258 4.22017C22.1673 4.88778 22.288 5.69318 22.288 6.63636C22.288 7.58523 22.1687 8.39489 21.93 9.06534C21.6914 9.73295 21.3462 10.2429 20.8945 10.5952C20.4428 10.9446 19.896 11.1193 19.2539 11.1193ZM19.2539 10.1818C19.8903 10.1818 20.3846 9.875 20.7369 9.26136C21.0891 8.64773 21.2653 7.77273 21.2653 6.63636C21.2653 5.88068 21.1843 5.23722 21.0224 4.70597C20.8633 4.17472 20.6332 3.76989 20.332 3.49148C20.0337 3.21307 19.6744 3.07386 19.2539 3.07386C18.6232 3.07386 18.1303 3.38494 17.7752 4.0071C17.4201 4.62642 17.2425 5.50284 17.2425 6.63636C17.2425 7.39205 17.3221 8.03409 17.4812 8.5625C17.6403 9.09091 17.869 9.4929 18.1673 9.76847C18.4684 10.044 18.8306 10.1818 19.2539 10.1818ZM26.7028 11.1193C26.1175 11.1193 25.6005 11.0156 25.1516 10.8082C24.7056 10.598 24.3576 10.3097 24.1076 9.94318C23.8576 9.57386 23.734 9.15341 23.7369 8.68182C23.734 8.3125 23.8065 7.97159 23.9542 7.65909C24.1019 7.34375 24.3036 7.08097 24.5593 6.87074C24.8178 6.65767 25.1062 6.52273 25.4244 6.46591V6.41477C25.0067 6.30682 24.6744 6.07244 24.4272 5.71165C24.18 5.34801 24.0579 4.93466 24.0607 4.47159C24.0579 4.02841 24.1701 3.6321 24.3974 3.28267C24.6246 2.93324 24.9371 2.65767 25.3349 2.45597C25.7354 2.25426 26.1914 2.15341 26.7028 2.15341C27.2085 2.15341 27.6602 2.25426 28.0579 2.45597C28.4556 2.65767 28.7681 2.93324 28.9954 3.28267C29.2255 3.6321 29.342 4.02841 29.3448 4.47159C29.342 4.93466 29.2156 5.34801 28.9656 5.71165C28.7184 6.07244 28.3903 6.30682 27.9812 6.41477V6.46591C28.2965 6.52273 28.5806 6.65767 28.8335 6.87074C29.0863 7.08097 29.288 7.34375 29.4386 7.65909C29.5891 7.97159 29.6658 8.3125 29.6687 8.68182C29.6658 9.15341 29.538 9.57386 29.2852 9.94318C29.0352 10.3097 28.6871 10.598 28.2411 10.8082C27.7979 11.0156 27.2852 11.1193 26.7028 11.1193ZM26.7028 10.1818C27.0977 10.1818 27.4386 10.1179 27.7255 9.99006C28.0124 9.86222 28.234 9.68182 28.3903 9.44886C28.5465 9.21591 28.6261 8.94318 28.6289 8.63068C28.6261 8.30114 28.5408 8.00994 28.3732 7.7571C28.2056 7.50426 27.9769 7.3054 27.6871 7.16051C27.4002 7.01562 27.0721 6.94318 26.7028 6.94318C26.3306 6.94318 25.9982 7.01562 25.7056 7.16051C25.4158 7.3054 25.1871 7.50426 25.0195 7.7571C24.8548 8.00994 24.7738 8.30114 24.7766 8.63068C24.7738 8.94318 24.8491 9.21591 25.0025 9.44886C25.1587 9.68182 25.3817 9.86222 25.6715 9.99006C25.9613 10.1179 26.305 10.1818 26.7028 10.1818ZM26.7028 6.03977C27.0153 6.03977 27.2923 5.97727 27.5337 5.85227C27.7781 5.72727 27.9698 5.55256 28.109 5.32812C28.2482 5.10369 28.3192 4.84091 28.3221 4.53977C28.3192 4.24432 28.2496 3.98722 28.1133 3.76847C27.9769 3.54687 27.788 3.37642 27.5465 3.2571C27.305 3.13494 27.0238 3.07386 26.7028 3.07386C26.3761 3.07386 26.0906 3.13494 25.8462 3.2571C25.6019 3.37642 25.413 3.54687 25.2795 3.76847C25.146 3.98722 25.0806 4.24432 25.0835 4.53977C25.0806 4.84091 25.1474 5.10369 25.2837 5.32812C25.4229 5.55256 25.6147 5.72727 25.859 5.85227C26.1033 5.97727 26.3846 6.03977 26.7028 6.03977ZM31.5746 11L35.478 3.27841V3.21023H30.978V2.27273H36.5689V3.26136L32.6825 11H31.5746ZM41.5323 11V10.233L44.413 7.07955C44.7511 6.71023 45.0295 6.3892 45.2482 6.11648C45.467 5.84091 45.6289 5.58239 45.734 5.34091C45.842 5.09659 45.896 4.84091 45.896 4.57386C45.896 4.26705 45.8221 4.00142 45.6744 3.77699C45.5295 3.55256 45.3306 3.37926 45.0778 3.2571C44.8249 3.13494 44.5408 3.07386 44.2255 3.07386C43.8903 3.07386 43.5977 3.14347 43.3477 3.28267C43.1005 3.41903 42.9087 3.6108 42.7724 3.85795C42.6388 4.10511 42.5721 4.39489 42.5721 4.72727H41.5664C41.5664 4.21591 41.6843 3.76705 41.9201 3.38068C42.1559 2.99432 42.4769 2.69318 42.8832 2.47727C43.2923 2.26136 43.7511 2.15341 44.2596 2.15341C44.771 2.15341 45.2241 2.26136 45.619 2.47727C46.0138 2.69318 46.3235 2.98437 46.5479 3.35085C46.7724 3.71733 46.8846 4.125 46.8846 4.57386C46.8846 4.89489 46.8263 5.20881 46.7099 5.51562C46.5962 5.8196 46.3974 6.15909 46.1133 6.53409C45.832 6.90625 45.4414 7.3608 44.9414 7.89773L42.9812 9.99432V10.0625H47.038V11H41.5323ZM48.4059 9.21023V8.34091L52.2411 2.27273H52.8718V3.61932H52.4457L49.5479 8.20455V8.27273H54.7127V9.21023H48.4059ZM52.5138 11V8.94602V8.54119V2.27273H53.5195V11H52.5138ZM59.0369 11.1193C58.5369 11.1193 58.0866 11.0199 57.6861 10.821C57.2855 10.6222 56.9645 10.3494 56.723 10.0028C56.4815 9.65625 56.3494 9.26136 56.3267 8.81818H57.3494C57.3892 9.21307 57.5682 9.53977 57.8864 9.7983C58.2074 10.054 58.5909 10.1818 59.0369 10.1818C59.3949 10.1818 59.7131 10.098 59.9915 9.9304C60.2727 9.76278 60.4929 9.53267 60.652 9.24006C60.8139 8.9446 60.8949 8.6108 60.8949 8.23864C60.8949 7.85795 60.8111 7.51847 60.6435 7.22017C60.4787 6.91903 60.2514 6.68182 59.9616 6.50852C59.6719 6.33523 59.3409 6.24716 58.9688 6.24432C58.7017 6.24148 58.4276 6.28267 58.1463 6.3679C57.8651 6.45028 57.6335 6.55682 57.4517 6.6875L56.4631 6.56818L56.9915 2.27273H61.5256V3.21023H57.8778L57.571 5.78409H57.6222C57.8011 5.64205 58.0256 5.52415 58.2955 5.4304C58.5653 5.33665 58.8466 5.28977 59.1392 5.28977C59.6733 5.28977 60.1491 5.41761 60.5668 5.6733C60.9872 5.92614 61.3168 6.27273 61.5554 6.71307C61.7969 7.15341 61.9176 7.65625 61.9176 8.22159C61.9176 8.77841 61.7926 9.27557 61.5426 9.71307C61.2955 10.1477 60.9545 10.4915 60.5199 10.7443C60.0852 10.9943 59.5909 11.1193 59.0369 11.1193ZM69.832 11.1193C69.19 11.1193 68.6431 10.9446 68.1914 10.5952C67.7397 10.2429 67.3945 9.73295 67.1559 9.06534C66.9173 8.39489 66.7979 7.58523 66.7979 6.63636C66.7979 5.69318 66.9173 4.88778 67.1559 4.22017C67.3974 3.54972 67.744 3.03835 68.1957 2.68608C68.6502 2.33097 69.1957 2.15341 69.832 2.15341C70.4684 2.15341 71.0124 2.33097 71.4641 2.68608C71.9187 3.03835 72.2653 3.54972 72.5039 4.22017C72.7454 4.88778 72.8661 5.69318 72.8661 6.63636C72.8661 7.58523 72.7468 8.39489 72.5082 9.06534C72.2695 9.73295 71.9244 10.2429 71.4727 10.5952C71.021 10.9446 70.4741 11.1193 69.832 11.1193ZM69.832 10.1818C70.4684 10.1818 70.9627 9.875 71.315 9.26136C71.6673 8.64773 71.8434 7.77273 71.8434 6.63636C71.8434 5.88068 71.7624 5.23722 71.6005 4.70597C71.4414 4.17472 71.2113 3.76989 70.9102 3.49148C70.6119 3.21307 70.2525 3.07386 69.832 3.07386C69.2013 3.07386 68.7085 3.38494 68.3533 4.0071C67.9982 4.62642 67.8207 5.50284 67.8207 6.63636C67.8207 7.39205 67.9002 8.03409 68.0593 8.5625C68.2184 9.09091 68.4471 9.4929 68.7454 9.76847C69.0465 10.044 69.4087 10.1818 69.832 10.1818ZM77.332 11.1193C76.69 11.1193 76.1431 10.9446 75.6914 10.5952C75.2397 10.2429 74.8945 9.73295 74.6559 9.06534C74.4173 8.39489 74.2979 7.58523 74.2979 6.63636C74.2979 5.69318 74.4173 4.88778 74.6559 4.22017C74.8974 3.54972 75.244 3.03835 75.6957 2.68608C76.1502 2.33097 76.6957 2.15341 77.332 2.15341C77.9684 2.15341 78.5124 2.33097 78.9641 2.68608C79.4187 3.03835 79.7653 3.54972 80.0039 4.22017C80.2454 4.88778 80.3661 5.69318 80.3661 6.63636C80.3661 7.58523 80.2468 8.39489 80.0082 9.06534C79.7695 9.73295 79.4244 10.2429 78.9727 10.5952C78.521 10.9446 77.9741 11.1193 77.332 11.1193ZM77.332 10.1818C77.9684 10.1818 78.4627 9.875 78.815 9.26136C79.1673 8.64773 79.3434 7.77273 79.3434 6.63636C79.3434 5.88068 79.2624 5.23722 79.1005 4.70597C78.9414 4.17472 78.7113 3.76989 78.4102 3.49148C78.1119 3.21307 77.7525 3.07386 77.332 3.07386C76.7013 3.07386 76.2085 3.38494 75.8533 4.0071C75.4982 4.62642 75.3207 5.50284 75.3207 6.63636C75.3207 7.39205 75.4002 8.03409 75.5593 8.5625C75.7184 9.09091 75.9471 9.4929 76.2454 9.76847C76.5465 10.044 76.9087 10.1818 77.332 10.1818ZM81.7809 9.21023V8.34091L85.6161 2.27273H86.2468V3.61932H85.8207L82.9229 8.20455V8.27273H88.0877V9.21023H81.7809ZM85.8888 11V8.94602V8.54119V2.27273H86.8945V11H85.8888ZM92.4631 2.15341C92.821 2.15625 93.179 2.22443 93.5369 2.35795C93.8949 2.49148 94.2216 2.71307 94.517 3.02273C94.8125 3.32955 95.0497 3.74858 95.2287 4.27983C95.4077 4.81108 95.4972 5.47727 95.4972 6.27841C95.4972 7.05398 95.4233 7.7429 95.2756 8.34517C95.1307 8.9446 94.9205 9.45028 94.6449 9.86222C94.3722 10.2741 94.0398 10.5866 93.6477 10.7997C93.2585 11.0128 92.8182 11.1193 92.3267 11.1193C91.8381 11.1193 91.402 11.0227 91.0185 10.8295C90.6378 10.6335 90.3253 10.3622 90.081 10.0156C89.8395 9.66619 89.6847 9.26136 89.6165 8.80114H90.6562C90.75 9.2017 90.9361 9.53267 91.2145 9.79403C91.4957 10.0526 91.8665 10.1818 92.3267 10.1818C93 10.1818 93.5313 9.88778 93.9205 9.29972C94.3125 8.71165 94.5085 7.88068 94.5085 6.80682H94.4403C94.2813 7.04545 94.0923 7.25142 93.8736 7.42472C93.6548 7.59801 93.4119 7.73153 93.1449 7.82528C92.8778 7.91903 92.5938 7.96591 92.2926 7.96591C91.7926 7.96591 91.3338 7.84233 90.9162 7.59517C90.5014 7.34517 90.169 7.00284 89.919 6.56818C89.6719 6.13068 89.5483 5.63068 89.5483 5.06818C89.5483 4.53409 89.6676 4.04545 89.9062 3.60227C90.1477 3.15625 90.4858 2.80114 90.9205 2.53693C91.358 2.27273 91.8722 2.14489 92.4631 2.15341ZM92.4631 3.09091C92.1051 3.09091 91.7827 3.1804 91.4957 3.35938C91.2116 3.53551 90.9858 3.77415 90.8182 4.07528C90.6534 4.37358 90.571 4.70455 90.571 5.06818C90.571 5.43182 90.6506 5.76278 90.8097 6.06108C90.9716 6.35653 91.1918 6.59233 91.4702 6.76847C91.7514 6.94176 92.071 7.02841 92.429 7.02841C92.6989 7.02841 92.9503 6.97585 93.1832 6.87074C93.4162 6.76278 93.6193 6.61648 93.7926 6.43182C93.9688 6.24432 94.1065 6.03267 94.206 5.79688C94.3054 5.55824 94.3551 5.30966 94.3551 5.05114C94.3551 4.71023 94.2727 4.39062 94.108 4.09233C93.946 3.79403 93.7216 3.55256 93.4347 3.3679C93.1506 3.18324 92.8267 3.09091 92.4631 3.09091ZM100.275 1.86364L97.4627 12.3125H96.5423L99.3548 1.86364H100.275ZM107.672 11.1193C107.03 11.1193 106.483 10.9446 106.031 10.5952C105.58 10.2429 105.234 9.73295 104.996 9.06534C104.757 8.39489 104.638 7.58523 104.638 6.63636C104.638 5.69318 104.757 4.88778 104.996 4.22017C105.237 3.54972 105.584 3.03835 106.036 2.68608C106.49 2.33097 107.036 2.15341 107.672 2.15341C108.308 2.15341 108.852 2.33097 109.304 2.68608C109.759 3.03835 110.105 3.54972 110.344 4.22017C110.585 4.88778 110.706 5.69318 110.706 6.63636C110.706 7.58523 110.587 8.39489 110.348 9.06534C110.109 9.73295 109.764 10.2429 109.312 10.5952C108.861 10.9446 108.314 11.1193 107.672 11.1193ZM107.672 10.1818C108.308 10.1818 108.803 9.875 109.155 9.26136C109.507 8.64773 109.683 7.77273 109.683 6.63636C109.683 5.88068 109.602 5.23722 109.44 4.70597C109.281 4.17472 109.051 3.76989 108.75 3.49148C108.452 3.21307 108.092 3.07386 107.672 3.07386C107.041 3.07386 106.548 3.38494 106.193 4.0071C105.838 4.62642 105.661 5.50284 105.661 6.63636C105.661 7.39205 105.74 8.03409 105.899 8.5625C106.058 9.09091 106.287 9.4929 106.585 9.76847C106.886 10.044 107.249 10.1818 107.672 10.1818ZM115.393 2.27273V11H114.337V3.38068H114.286L112.155 4.79545V3.72159L114.337 2.27273H115.393ZM124.074 11.1193C123.489 11.1193 122.972 11.0156 122.523 10.8082C122.077 10.598 121.729 10.3097 121.479 9.94318C121.229 9.57386 121.105 9.15341 121.108 8.68182C121.105 8.3125 121.178 7.97159 121.325 7.65909C121.473 7.34375 121.675 7.08097 121.93 6.87074C122.189 6.65767 122.477 6.52273 122.795 6.46591V6.41477C122.378 6.30682 122.045 6.07244 121.798 5.71165C121.551 5.34801 121.429 4.93466 121.432 4.47159C121.429 4.02841 121.541 3.6321 121.768 3.28267C121.996 2.93324 122.308 2.65767 122.706 2.45597C123.107 2.25426 123.563 2.15341 124.074 2.15341C124.58 2.15341 125.031 2.25426 125.429 2.45597C125.827 2.65767 126.139 2.93324 126.366 3.28267C126.597 3.6321 126.713 4.02841 126.716 4.47159C126.713 4.93466 126.587 5.34801 126.337 5.71165C126.089 6.07244 125.761 6.30682 125.352 6.41477V6.46591C125.668 6.52273 125.952 6.65767 126.205 6.87074C126.457 7.08097 126.659 7.34375 126.81 7.65909C126.96 7.97159 127.037 8.3125 127.04 8.68182C127.037 9.15341 126.909 9.57386 126.656 9.94318C126.406 10.3097 126.058 10.598 125.612 10.8082C125.169 11.0156 124.656 11.1193 124.074 11.1193ZM124.074 10.1818C124.469 10.1818 124.81 10.1179 125.097 9.99006C125.384 9.86222 125.605 9.68182 125.761 9.44886C125.918 9.21591 125.997 8.94318 126 8.63068C125.997 8.30114 125.912 8.00994 125.744 7.7571C125.577 7.50426 125.348 7.3054 125.058 7.16051C124.771 7.01562 124.443 6.94318 124.074 6.94318C123.702 6.94318 123.369 7.01562 123.077 7.16051C122.787 7.3054 122.558 7.50426 122.391 7.7571C122.226 8.00994 122.145 8.30114 122.148 8.63068C122.145 8.94318 122.22 9.21591 122.374 9.44886C122.53 9.68182 122.753 9.86222 123.043 9.99006C123.332 10.1179 123.676 10.1818 124.074 10.1818ZM124.074 6.03977C124.386 6.03977 124.663 5.97727 124.905 5.85227C125.149 5.72727 125.341 5.55256 125.48 5.32812C125.619 5.10369 125.69 4.84091 125.693 4.53977C125.69 4.24432 125.621 3.98722 125.484 3.76847C125.348 3.54687 125.159 3.37642 124.918 3.2571C124.676 3.13494 124.395 3.07386 124.074 3.07386C123.747 3.07386 123.462 3.13494 123.217 3.2571C122.973 3.37642 122.784 3.54687 122.651 3.76847C122.517 3.98722 122.452 4.24432 122.455 4.53977C122.452 4.84091 122.518 5.10369 122.655 5.32812C122.794 5.55256 122.986 5.72727 123.23 5.85227C123.474 5.97727 123.756 6.03977 124.074 6.03977ZM131.741 2.27273V11H130.684V3.38068H130.633L128.502 4.79545V3.72159L130.684 2.27273H131.741ZM137.2 11.1193C136.637 11.1193 136.136 11.0227 135.696 10.8295C135.258 10.6364 134.91 10.3679 134.652 10.0241C134.396 9.67756 134.257 9.27557 134.234 8.81818H135.308C135.331 9.09943 135.427 9.34233 135.598 9.54688C135.768 9.74858 135.991 9.90483 136.267 10.0156C136.542 10.1264 136.848 10.1818 137.183 10.1818C137.558 10.1818 137.89 10.1165 138.18 9.9858C138.47 9.85511 138.697 9.6733 138.862 9.44034C139.027 9.20739 139.109 8.9375 139.109 8.63068C139.109 8.30966 139.029 8.02699 138.87 7.78267C138.711 7.53551 138.478 7.34233 138.172 7.20312C137.865 7.06392 137.49 6.99432 137.047 6.99432H136.348V6.05682H137.047C137.393 6.05682 137.697 5.99432 137.958 5.86932C138.223 5.74432 138.429 5.56818 138.576 5.34091C138.727 5.11364 138.802 4.84659 138.802 4.53977C138.802 4.24432 138.737 3.98722 138.606 3.76847C138.475 3.54972 138.291 3.37926 138.052 3.2571C137.816 3.13494 137.538 3.07386 137.217 3.07386C136.916 3.07386 136.632 3.12926 136.365 3.24006C136.1 3.34801 135.885 3.50568 135.717 3.71307C135.549 3.91761 135.458 4.16477 135.444 4.45455H134.422C134.439 3.99716 134.576 3.59659 134.835 3.25284C135.093 2.90625 135.431 2.63636 135.849 2.44318C136.27 2.25 136.731 2.15341 137.234 2.15341C137.774 2.15341 138.237 2.26278 138.623 2.48153C139.01 2.69744 139.306 2.98295 139.514 3.33807C139.721 3.69318 139.825 4.0767 139.825 4.48864C139.825 4.98011 139.696 5.39915 139.437 5.74574C139.181 6.09233 138.833 6.33239 138.393 6.46591V6.53409C138.944 6.625 139.375 6.85937 139.684 7.23722C139.994 7.61222 140.149 8.0767 140.149 8.63068C140.149 9.10511 140.02 9.53125 139.761 9.90909C139.505 10.2841 139.156 10.5795 138.713 10.7955C138.27 11.0114 137.765 11.1193 137.2 11.1193ZM142.164 11L146.068 3.27841V3.21023H141.568V2.27273H147.159V3.26136L143.272 11H142.164ZM151.367 11.1193C150.782 11.1193 150.265 11.0156 149.816 10.8082C149.37 10.598 149.022 10.3097 148.772 9.94318C148.522 9.57386 148.398 9.15341 148.401 8.68182C148.398 8.3125 148.471 7.97159 148.618 7.65909C148.766 7.34375 148.968 7.08097 149.223 6.87074C149.482 6.65767 149.77 6.52273 150.088 6.46591V6.41477C149.671 6.30682 149.338 6.07244 149.091 5.71165C148.844 5.34801 148.722 4.93466 148.725 4.47159C148.722 4.02841 148.834 3.6321 149.061 3.28267C149.289 2.93324 149.601 2.65767 149.999 2.45597C150.4 2.25426 150.855 2.15341 151.367 2.15341C151.873 2.15341 152.324 2.25426 152.722 2.45597C153.12 2.65767 153.432 2.93324 153.659 3.28267C153.89 3.6321 154.006 4.02841 154.009 4.47159C154.006 4.93466 153.88 5.34801 153.63 5.71165C153.382 6.07244 153.054 6.30682 152.645 6.41477V6.46591C152.961 6.52273 153.245 6.65767 153.498 6.87074C153.75 7.08097 153.952 7.34375 154.103 7.65909C154.253 7.97159 154.33 8.3125 154.333 8.68182C154.33 9.15341 154.202 9.57386 153.949 9.94318C153.699 10.3097 153.351 10.598 152.905 10.8082C152.462 11.0156 151.949 11.1193 151.367 11.1193ZM151.367 10.1818C151.762 10.1818 152.103 10.1179 152.39 9.99006C152.676 9.86222 152.898 9.68182 153.054 9.44886C153.211 9.21591 153.29 8.94318 153.293 8.63068C153.29 8.30114 153.205 8.00994 153.037 7.7571C152.87 7.50426 152.641 7.3054 152.351 7.16051C152.064 7.01562 151.736 6.94318 151.367 6.94318C150.995 6.94318 150.662 7.01562 150.37 7.16051C150.08 7.3054 149.851 7.50426 149.684 7.7571C149.519 8.00994 149.438 8.30114 149.441 8.63068C149.438 8.94318 149.513 9.21591 149.667 9.44886C149.823 9.68182 150.046 9.86222 150.336 9.99006C150.625 10.1179 150.969 10.1818 151.367 10.1818ZM151.367 6.03977C151.679 6.03977 151.956 5.97727 152.198 5.85227C152.442 5.72727 152.634 5.55256 152.773 5.32812C152.912 5.10369 152.983 4.84091 152.986 4.53977C152.983 4.24432 152.914 3.98722 152.777 3.76847C152.641 3.54687 152.452 3.37642 152.211 3.2571C151.969 3.13494 151.688 3.07386 151.367 3.07386C151.04 3.07386 150.755 3.13494 150.51 3.2571C150.266 3.37642 150.077 3.54687 149.944 3.76847C149.81 3.98722 149.745 4.24432 149.748 4.53977C149.745 4.84091 149.811 5.10369 149.948 5.32812C150.087 5.55256 150.279 5.72727 150.523 5.85227C150.767 5.97727 151.049 6.03977 151.367 6.03977ZM159.034 2.27273V11H157.977V3.38068H157.926L155.795 4.79545V3.72159L157.977 2.27273H159.034ZM164.612 2.27273V11H163.555V3.38068H163.504L161.374 4.79545V3.72159L163.555 2.27273H164.612ZM181.175 12.932V0.359999H182.127V12.932H181.175ZM218.169 11.1364C217.556 11.1364 217.027 10.9915 216.584 10.7017C216.141 10.4119 215.8 10.0128 215.561 9.50426C215.323 8.99574 215.203 8.41477 215.203 7.76136C215.203 7.09659 215.326 6.50994 215.57 6.00142C215.817 5.49006 216.161 5.09091 216.601 4.80398C217.044 4.5142 217.561 4.36932 218.152 4.36932C218.613 4.36932 219.027 4.45455 219.397 4.625C219.766 4.79545 220.069 5.03409 220.304 5.34091C220.54 5.64773 220.686 6.00568 220.743 6.41477H219.738C219.661 6.11648 219.49 5.85227 219.226 5.62216C218.965 5.3892 218.613 5.27273 218.169 5.27273C217.777 5.27273 217.434 5.375 217.138 5.57955C216.846 5.78125 216.617 6.06676 216.452 6.43608C216.29 6.80256 216.209 7.23295 216.209 7.72727C216.209 8.23295 216.289 8.6733 216.448 9.0483C216.61 9.4233 216.837 9.71449 217.13 9.92188C217.425 10.1293 217.772 10.233 218.169 10.233C218.431 10.233 218.668 10.1875 218.881 10.0966C219.094 10.0057 219.275 9.875 219.422 9.70455C219.57 9.53409 219.675 9.32955 219.738 9.09091H220.743C220.686 9.47727 220.546 9.82528 220.321 10.1349C220.1 10.4418 219.806 10.6861 219.439 10.8679C219.076 11.0469 218.652 11.1364 218.169 11.1364ZM224.873 11.1364C224.282 11.1364 223.763 10.9957 223.317 10.7145C222.874 10.4332 222.527 10.0398 222.277 9.53409C222.03 9.02841 221.907 8.4375 221.907 7.76136C221.907 7.07955 222.03 6.48437 222.277 5.97585C222.527 5.46733 222.874 5.07244 223.317 4.79119C223.763 4.50994 224.282 4.36932 224.873 4.36932C225.463 4.36932 225.98 4.50994 226.424 4.79119C226.87 5.07244 227.216 5.46733 227.463 5.97585C227.713 6.48437 227.838 7.07955 227.838 7.76136C227.838 8.4375 227.713 9.02841 227.463 9.53409C227.216 10.0398 226.87 10.4332 226.424 10.7145C225.98 10.9957 225.463 11.1364 224.873 11.1364ZM224.873 10.233C225.321 10.233 225.691 10.1179 225.98 9.88778C226.27 9.65767 226.485 9.35511 226.624 8.98011C226.763 8.60511 226.833 8.19886 226.833 7.76136C226.833 7.32386 226.763 6.91619 226.624 6.53835C226.485 6.16051 226.27 5.85511 225.98 5.62216C225.691 5.3892 225.321 5.27273 224.873 5.27273C224.424 5.27273 224.054 5.3892 223.765 5.62216C223.475 5.85511 223.26 6.16051 223.121 6.53835C222.982 6.91619 222.912 7.32386 222.912 7.76136C222.912 8.19886 222.982 8.60511 223.121 8.98011C223.26 9.35511 223.475 9.65767 223.765 9.88778C224.054 10.1179 224.424 10.233 224.873 10.233ZM230.379 7.0625V11H229.374V4.45455H230.345V5.47727H230.43C230.584 5.14489 230.817 4.87784 231.129 4.67614C231.442 4.47159 231.845 4.36932 232.339 4.36932C232.783 4.36932 233.17 4.46023 233.503 4.64205C233.835 4.82102 234.094 5.09375 234.278 5.46023C234.463 5.82386 234.555 6.28409 234.555 6.84091V11H233.55V6.90909C233.55 6.39489 233.416 5.99432 233.149 5.70739C232.882 5.41761 232.516 5.27273 232.05 5.27273C231.729 5.27273 231.442 5.34233 231.189 5.48153C230.939 5.62074 230.741 5.82386 230.597 6.09091C230.452 6.35795 230.379 6.68182 230.379 7.0625ZM239.24 4.45455V5.30682H235.848V4.45455H239.24ZM236.836 2.88636H237.842V9.125C237.842 9.40909 237.883 9.62216 237.966 9.7642C238.051 9.90341 238.159 9.99716 238.289 10.0455C238.423 10.0909 238.564 10.1136 238.711 10.1136C238.822 10.1136 238.913 10.108 238.984 10.0966C239.055 10.0824 239.112 10.071 239.154 10.0625L239.359 10.9659C239.291 10.9915 239.196 11.017 239.074 11.0426C238.951 11.071 238.797 11.0852 238.609 11.0852C238.325 11.0852 238.047 11.0241 237.774 10.902C237.504 10.7798 237.279 10.5938 237.1 10.3438C236.924 10.0938 236.836 9.77841 236.836 9.39773V2.88636ZM242.679 11.1534C242.264 11.1534 241.887 11.0753 241.549 10.919C241.211 10.7599 240.943 10.5312 240.744 10.233C240.545 9.93182 240.446 9.56818 240.446 9.14205C240.446 8.76705 240.52 8.46307 240.667 8.23011C240.815 7.99432 241.012 7.80966 241.26 7.67614C241.507 7.54261 241.779 7.44318 242.078 7.37784C242.379 7.30966 242.681 7.25568 242.985 7.21591C243.383 7.16477 243.706 7.12642 243.953 7.10085C244.203 7.07244 244.385 7.02557 244.498 6.96023C244.615 6.89489 244.673 6.78125 244.673 6.61932V6.58523C244.673 6.16477 244.558 5.83807 244.328 5.60511C244.1 5.37216 243.755 5.25568 243.292 5.25568C242.812 5.25568 242.436 5.3608 242.163 5.57102C241.89 5.78125 241.699 6.00568 241.588 6.24432L240.633 5.90341C240.804 5.50568 241.031 5.19602 241.315 4.97443C241.602 4.75 241.914 4.59375 242.252 4.50568C242.593 4.41477 242.929 4.36932 243.258 4.36932C243.468 4.36932 243.71 4.39489 243.983 4.44602C244.258 4.49432 244.524 4.59517 244.779 4.74858C245.038 4.90199 245.252 5.13352 245.423 5.44318C245.593 5.75284 245.679 6.16761 245.679 6.6875V11H244.673V10.1136H244.622C244.554 10.2557 244.44 10.4077 244.281 10.5696C244.122 10.7315 243.91 10.8693 243.646 10.983C243.382 11.0966 243.059 11.1534 242.679 11.1534ZM242.832 10.25C243.23 10.25 243.565 10.1719 243.838 10.0156C244.113 9.85938 244.321 9.65767 244.46 9.41051C244.602 9.16335 244.673 8.90341 244.673 8.63068V7.71023C244.63 7.76136 244.537 7.80824 244.392 7.85085C244.25 7.89062 244.085 7.92614 243.897 7.95739C243.713 7.9858 243.532 8.01136 243.356 8.03409C243.183 8.05398 243.042 8.07102 242.934 8.08523C242.673 8.11932 242.429 8.17472 242.201 8.25142C241.977 8.32528 241.795 8.4375 241.656 8.58807C241.52 8.7358 241.451 8.9375 241.451 9.19318C241.451 9.54261 241.581 9.80682 241.839 9.9858C242.1 10.1619 242.431 10.25 242.832 10.25ZM250.173 11.1364C249.56 11.1364 249.031 10.9915 248.588 10.7017C248.145 10.4119 247.804 10.0128 247.565 9.50426C247.327 8.99574 247.207 8.41477 247.207 7.76136C247.207 7.09659 247.33 6.50994 247.574 6.00142C247.821 5.49006 248.165 5.09091 248.605 4.80398C249.048 4.5142 249.565 4.36932 250.156 4.36932C250.616 4.36932 251.031 4.45455 251.401 4.625C251.77 4.79545 252.072 5.03409 252.308 5.34091C252.544 5.64773 252.69 6.00568 252.747 6.41477H251.741C251.665 6.11648 251.494 5.85227 251.23 5.62216C250.969 5.3892 250.616 5.27273 250.173 5.27273C249.781 5.27273 249.438 5.375 249.142 5.57955C248.849 5.78125 248.621 6.06676 248.456 6.43608C248.294 6.80256 248.213 7.23295 248.213 7.72727C248.213 8.23295 248.293 8.6733 248.452 9.0483C248.614 9.4233 248.841 9.71449 249.134 9.92188C249.429 10.1293 249.776 10.233 250.173 10.233C250.435 10.233 250.672 10.1875 250.885 10.0966C251.098 10.0057 251.278 9.875 251.426 9.70455C251.574 9.53409 251.679 9.32955 251.741 9.09091H252.747C252.69 9.47727 252.55 9.82528 252.325 10.1349C252.104 10.4418 251.81 10.6861 251.443 10.8679C251.08 11.0469 250.656 11.1364 250.173 11.1364ZM257.064 4.45455V5.30682H253.672V4.45455H257.064ZM254.661 2.88636H255.666V9.125C255.666 9.40909 255.707 9.62216 255.79 9.7642C255.875 9.90341 255.983 9.99716 256.114 10.0455C256.247 10.0909 256.388 10.1136 256.536 10.1136C256.646 10.1136 256.737 10.108 256.808 10.0966C256.879 10.0824 256.936 10.071 256.979 10.0625L257.183 10.9659C257.115 10.9915 257.02 11.017 256.898 11.0426C256.776 11.071 256.621 11.0852 256.433 11.0852C256.149 11.0852 255.871 11.0241 255.598 10.902C255.328 10.7798 255.104 10.5938 254.925 10.3438C254.749 10.0938 254.661 9.77841 254.661 9.39773V2.88636ZM263.605 13.3011C262.736 13.3011 261.967 13.1818 261.3 12.9432C260.632 12.7074 260.071 12.3594 259.616 11.8991C259.162 11.4389 258.818 10.875 258.585 10.2074C258.352 9.53977 258.236 8.77557 258.236 7.91477C258.236 7.08239 258.354 6.33807 258.589 5.68182C258.828 5.02557 259.173 4.46875 259.625 4.01136C260.08 3.55114 260.631 3.20028 261.278 2.95881C261.929 2.71733 262.665 2.59659 263.486 2.59659C264.284 2.59659 264.983 2.72727 265.582 2.98864C266.185 3.24716 266.688 3.59801 267.091 4.04119C267.497 4.48153 267.801 4.97727 268.003 5.52841C268.207 6.07955 268.31 6.64773 268.31 7.23295C268.31 7.64489 268.29 8.0625 268.25 8.4858C268.21 8.90909 268.126 9.2983 267.999 9.65341C267.871 10.0057 267.673 10.2898 267.406 10.5057C267.142 10.7216 266.784 10.8295 266.332 10.8295C266.134 10.8295 265.915 10.7983 265.676 10.7358C265.438 10.6733 265.226 10.5696 265.041 10.4247C264.857 10.2798 264.747 10.0852 264.713 9.84091H264.662C264.594 10.0057 264.489 10.1619 264.347 10.3097C264.207 10.4574 264.024 10.5753 263.797 10.6634C263.572 10.7514 263.298 10.7898 262.974 10.7784C262.605 10.7642 262.28 10.6818 261.999 10.5312C261.717 10.3778 261.482 10.1705 261.291 9.90909C261.104 9.64489 260.962 9.33949 260.865 8.9929C260.771 8.64347 260.724 8.26705 260.724 7.86364C260.724 7.48011 260.781 7.12926 260.895 6.81108C261.009 6.4929 261.166 6.21449 261.368 5.97585C261.572 5.73722 261.811 5.54687 262.084 5.40483C262.359 5.25994 262.656 5.17045 262.974 5.13636C263.259 5.10795 263.517 5.12074 263.75 5.17472C263.983 5.22585 264.175 5.30398 264.325 5.40909C264.476 5.51136 264.571 5.625 264.611 5.75H264.662V5.27273H265.565V9.125C265.565 9.36364 265.632 9.57386 265.766 9.75568C265.899 9.9375 266.094 10.0284 266.349 10.0284C266.639 10.0284 266.861 9.92898 267.014 9.73011C267.17 9.53125 267.277 9.22443 267.334 8.80966C267.393 8.39489 267.423 7.86364 267.423 7.21591C267.423 6.83523 267.371 6.46023 267.266 6.09091C267.163 5.71875 267.007 5.37074 266.797 5.04688C266.589 4.72301 266.327 4.4375 266.009 4.19034C265.69 3.94318 265.317 3.75 264.888 3.6108C264.462 3.46875 263.977 3.39773 263.435 3.39773C262.767 3.39773 262.169 3.50142 261.641 3.70881C261.115 3.91335 260.668 4.21307 260.298 4.60795C259.932 5 259.652 5.47727 259.459 6.03977C259.268 6.59943 259.173 7.2358 259.173 7.94886C259.173 8.6733 259.268 9.31676 259.459 9.87926C259.652 10.4418 259.936 10.9162 260.311 11.3026C260.689 11.6889 261.156 11.9815 261.713 12.1804C262.27 12.3821 262.912 12.483 263.639 12.483C263.952 12.483 264.26 12.4531 264.564 12.3935C264.868 12.3338 265.136 12.2685 265.369 12.1974C265.602 12.1264 265.77 12.0739 265.872 12.0398L266.111 12.8239C265.935 12.8977 265.705 12.9716 265.42 13.0455C265.139 13.1193 264.838 13.1804 264.517 13.2287C264.199 13.277 263.895 13.3011 263.605 13.3011ZM263.111 9.90909C263.491 9.90909 263.8 9.83239 264.036 9.67898C264.271 9.52557 264.443 9.29403 264.551 8.98438C264.659 8.67472 264.713 8.28409 264.713 7.8125C264.713 7.33523 264.653 6.96307 264.534 6.69602C264.415 6.42898 264.239 6.24148 264.006 6.13352C263.773 6.02557 263.486 5.97159 263.145 5.97159C262.821 5.97159 262.544 6.05682 262.314 6.22727C262.087 6.39489 261.912 6.61932 261.79 6.90057C261.67 7.17898 261.611 7.48295 261.611 7.8125C261.611 8.17614 261.659 8.51847 261.756 8.83949C261.852 9.15767 262.01 9.41619 262.229 9.61506C262.447 9.81108 262.741 9.90909 263.111 9.90909ZM274.451 5.92045L273.548 6.17614C273.491 6.02557 273.407 5.87926 273.297 5.73722C273.189 5.59233 273.041 5.47301 272.853 5.37926C272.666 5.28551 272.426 5.23864 272.133 5.23864C271.733 5.23864 271.399 5.33097 271.132 5.51562C270.868 5.69744 270.735 5.92898 270.735 6.21023C270.735 6.46023 270.826 6.65767 271.008 6.80256C271.19 6.94744 271.474 7.06818 271.86 7.16477L272.832 7.40341C273.417 7.54545 273.853 7.76278 274.14 8.0554C274.427 8.34517 274.571 8.71875 274.571 9.17614C274.571 9.55114 274.463 9.88636 274.247 10.1818C274.034 10.4773 273.735 10.7102 273.352 10.8807C272.968 11.0511 272.522 11.1364 272.014 11.1364C271.346 11.1364 270.794 10.9915 270.356 10.7017C269.919 10.4119 269.642 9.98864 269.525 9.43182L270.48 9.19318C270.571 9.54545 270.743 9.80966 270.995 9.9858C271.251 10.1619 271.585 10.25 271.997 10.25C272.466 10.25 272.838 10.1506 273.113 9.9517C273.392 9.75 273.531 9.50852 273.531 9.22727C273.531 9 273.451 8.80966 273.292 8.65625C273.133 8.5 272.889 8.38352 272.559 8.30682L271.468 8.05114C270.869 7.90909 270.429 7.68892 270.147 7.39062C269.869 7.08949 269.73 6.71307 269.73 6.26136C269.73 5.89205 269.833 5.56534 270.041 5.28125C270.251 4.99716 270.537 4.77415 270.897 4.61222C271.261 4.45028 271.673 4.36932 272.133 4.36932C272.781 4.36932 273.289 4.51136 273.659 4.79545C274.031 5.07955 274.295 5.45455 274.451 5.92045ZM278.011 11.1534C277.596 11.1534 277.219 11.0753 276.881 10.919C276.543 10.7599 276.275 10.5312 276.076 10.233C275.877 9.93182 275.778 9.56818 275.778 9.14205C275.778 8.76705 275.852 8.46307 275.999 8.23011C276.147 7.99432 276.344 7.80966 276.592 7.67614C276.839 7.54261 277.112 7.44318 277.41 7.37784C277.711 7.30966 278.013 7.25568 278.317 7.21591C278.715 7.16477 279.038 7.12642 279.285 7.10085C279.535 7.07244 279.717 7.02557 279.83 6.96023C279.947 6.89489 280.005 6.78125 280.005 6.61932V6.58523C280.005 6.16477 279.89 5.83807 279.66 5.60511C279.433 5.37216 279.087 5.25568 278.624 5.25568C278.144 5.25568 277.768 5.3608 277.495 5.57102C277.222 5.78125 277.031 6.00568 276.92 6.24432L275.965 5.90341C276.136 5.50568 276.363 5.19602 276.647 4.97443C276.934 4.75 277.246 4.59375 277.585 4.50568C277.925 4.41477 278.261 4.36932 278.59 4.36932C278.8 4.36932 279.042 4.39489 279.315 4.44602C279.59 4.49432 279.856 4.59517 280.112 4.74858C280.37 4.90199 280.585 5.13352 280.755 5.44318C280.925 5.75284 281.011 6.16761 281.011 6.6875V11H280.005V10.1136H279.954C279.886 10.2557 279.772 10.4077 279.613 10.5696C279.454 10.7315 279.242 10.8693 278.978 10.983C278.714 11.0966 278.391 11.1534 278.011 11.1534ZM278.164 10.25C278.562 10.25 278.897 10.1719 279.17 10.0156C279.445 9.85938 279.653 9.65767 279.792 9.41051C279.934 9.16335 280.005 8.90341 280.005 8.63068V7.71023C279.962 7.76136 279.869 7.80824 279.724 7.85085C279.582 7.89062 279.417 7.92614 279.229 7.95739C279.045 7.9858 278.864 8.01136 278.688 8.03409C278.515 8.05398 278.374 8.07102 278.266 8.08523C278.005 8.11932 277.761 8.17472 277.533 8.25142C277.309 8.32528 277.127 8.4375 276.988 8.58807C276.852 8.7358 276.783 8.9375 276.783 9.19318C276.783 9.54261 276.913 9.80682 277.171 9.9858C277.433 10.1619 277.763 10.25 278.164 10.25ZM282.846 11V4.45455H283.818V5.47727H283.903C284.039 5.12784 284.26 4.85653 284.564 4.66335C284.868 4.46733 285.233 4.36932 285.659 4.36932C286.091 4.36932 286.45 4.46733 286.737 4.66335C287.027 4.85653 287.252 5.12784 287.414 5.47727H287.483C287.65 5.1392 287.902 4.87074 288.237 4.67188C288.572 4.47017 288.974 4.36932 289.443 4.36932C290.028 4.36932 290.507 4.55256 290.879 4.91903C291.251 5.28267 291.437 5.84943 291.437 6.61932V11H290.431V6.61932C290.431 6.13636 290.299 5.79119 290.035 5.58381C289.771 5.37642 289.46 5.27273 289.102 5.27273C288.642 5.27273 288.285 5.41193 288.032 5.69034C287.779 5.96591 287.653 6.31534 287.653 6.73864V11H286.63V6.51705C286.63 6.14489 286.51 5.84517 286.268 5.6179C286.027 5.38778 285.716 5.27273 285.335 5.27273C285.074 5.27273 284.829 5.34233 284.602 5.48153C284.377 5.62074 284.196 5.81392 284.056 6.06108C283.92 6.3054 283.852 6.58807 283.852 6.90909V11H282.846ZM293.276 13.4545V4.45455H294.248V5.49432H294.367C294.441 5.38068 294.543 5.2358 294.674 5.05966C294.807 4.88068 294.998 4.72159 295.245 4.58239C295.495 4.44034 295.833 4.36932 296.259 4.36932C296.81 4.36932 297.296 4.5071 297.716 4.78267C298.137 5.05824 298.465 5.44886 298.701 5.95455C298.936 6.46023 299.054 7.05682 299.054 7.74432C299.054 8.4375 298.936 9.03835 298.701 9.54688C298.465 10.0526 298.138 10.4446 297.721 10.723C297.303 10.9986 296.821 11.1364 296.276 11.1364C295.855 11.1364 295.519 11.0668 295.266 10.9276C295.013 10.7855 294.819 10.625 294.682 10.446C294.546 10.2642 294.441 10.1136 294.367 9.99432H294.282V13.4545H293.276ZM294.265 7.72727C294.265 8.22159 294.337 8.65767 294.482 9.03551C294.627 9.41051 294.838 9.70455 295.117 9.91761C295.395 10.1278 295.736 10.233 296.14 10.233C296.56 10.233 296.911 10.1222 297.192 9.90057C297.476 9.67614 297.689 9.375 297.831 8.99716C297.976 8.61648 298.049 8.19318 298.049 7.72727C298.049 7.26705 297.978 6.85227 297.836 6.48295C297.696 6.1108 297.485 5.81676 297.201 5.60085C296.919 5.3821 296.566 5.27273 296.14 5.27273C295.73 5.27273 295.387 5.37642 295.108 5.58381C294.83 5.78835 294.62 6.07528 294.478 6.4446C294.336 6.81108 294.265 7.23864 294.265 7.72727ZM301.594 2.27273V11H300.588V2.27273H301.594ZM306.18 11.1364C305.55 11.1364 305.006 10.9972 304.548 10.7188C304.094 10.4375 303.743 10.0455 303.496 9.54261C303.251 9.03693 303.129 8.44886 303.129 7.77841C303.129 7.10795 303.251 6.51705 303.496 6.00568C303.743 5.49148 304.087 5.09091 304.527 4.80398C304.97 4.5142 305.487 4.36932 306.078 4.36932C306.419 4.36932 306.756 4.42614 307.088 4.53977C307.42 4.65341 307.723 4.83807 307.996 5.09375C308.268 5.34659 308.486 5.68182 308.648 6.09943C308.81 6.51705 308.891 7.03125 308.891 7.64205V8.06818H303.845V7.19886H307.868C307.868 6.82955 307.794 6.5 307.646 6.21023C307.501 5.92045 307.294 5.69176 307.024 5.52415C306.757 5.35653 306.442 5.27273 306.078 5.27273C305.678 5.27273 305.331 5.37216 305.038 5.57102C304.749 5.76705 304.526 6.02273 304.369 6.33807C304.213 6.65341 304.135 6.99148 304.135 7.35227V7.93182C304.135 8.42614 304.22 8.84517 304.391 9.18892C304.564 9.52983 304.804 9.78977 305.111 9.96875C305.418 10.1449 305.774 10.233 306.18 10.233C306.445 10.233 306.683 10.196 306.896 10.1222C307.112 10.0455 307.298 9.93182 307.455 9.78125C307.611 9.62784 307.732 9.4375 307.817 9.21023L308.788 9.48295C308.686 9.8125 308.514 10.1023 308.273 10.3523C308.031 10.5994 307.733 10.7926 307.378 10.9318C307.023 11.0682 306.624 11.1364 306.18 11.1364ZM311.153 11.0682C310.943 11.0682 310.763 10.9929 310.612 10.8423C310.462 10.6918 310.386 10.5114 310.386 10.3011C310.386 10.0909 310.462 9.91051 310.612 9.75994C310.763 9.60937 310.943 9.53409 311.153 9.53409C311.364 9.53409 311.544 9.60937 311.695 9.75994C311.845 9.91051 311.92 10.0909 311.92 10.3011C311.92 10.4403 311.885 10.5682 311.814 10.6847C311.746 10.8011 311.653 10.8949 311.537 10.9659C311.423 11.0341 311.295 11.0682 311.153 11.0682ZM313.725 11V4.45455H314.731V11H313.725ZM314.237 3.36364C314.04 3.36364 313.871 3.29688 313.729 3.16335C313.59 3.02983 313.521 2.86932 313.521 2.68182C313.521 2.49432 313.59 2.33381 313.729 2.20028C313.871 2.06676 314.04 2 314.237 2C314.433 2 314.6 2.06676 314.739 2.20028C314.881 2.33381 314.952 2.49432 314.952 2.68182C314.952 2.86932 314.881 3.02983 314.739 3.16335C314.6 3.29688 314.433 3.36364 314.237 3.36364ZM319.317 11.1364C318.686 11.1364 318.142 10.9972 317.685 10.7188C317.23 10.4375 316.88 10.0455 316.632 9.54261C316.388 9.03693 316.266 8.44886 316.266 7.77841C316.266 7.10795 316.388 6.51705 316.632 6.00568C316.88 5.49148 317.223 5.09091 317.664 4.80398C318.107 4.5142 318.624 4.36932 319.215 4.36932C319.556 4.36932 319.892 4.42614 320.225 4.53977C320.557 4.65341 320.86 4.83807 321.132 5.09375C321.405 5.34659 321.623 5.68182 321.784 6.09943C321.946 6.51705 322.027 7.03125 322.027 7.64205V8.06818H316.982V7.19886H321.005C321.005 6.82955 320.931 6.5 320.783 6.21023C320.638 5.92045 320.431 5.69176 320.161 5.52415C319.894 5.35653 319.578 5.27273 319.215 5.27273C318.814 5.27273 318.468 5.37216 318.175 5.57102C317.885 5.76705 317.662 6.02273 317.506 6.33807C317.35 6.65341 317.272 6.99148 317.272 7.35227V7.93182C317.272 8.42614 317.357 8.84517 317.527 9.18892C317.701 9.52983 317.941 9.78977 318.248 9.96875C318.554 10.1449 318.911 10.233 319.317 10.233C319.581 10.233 319.82 10.196 320.033 10.1222C320.249 10.0455 320.435 9.93182 320.591 9.78125C320.748 9.62784 320.868 9.4375 320.953 9.21023L321.925 9.48295C321.823 9.8125 321.651 10.1023 321.409 10.3523C321.168 10.5994 320.87 10.7926 320.515 10.9318C320.159 11.0682 319.76 11.1364 319.317 11.1364ZM337.593 12.932V0.359999H338.545V12.932H337.593ZM370.069 2.27273H371.33L374.296 9.51705H374.398L377.364 2.27273H378.625V11H377.637V4.36932H377.551L374.824 11H373.87L371.142 4.36932H371.057V11H370.069V2.27273ZM383.267 11.1364C382.676 11.1364 382.158 10.9957 381.712 10.7145C381.268 10.4332 380.922 10.0398 380.672 9.53409C380.425 9.02841 380.301 8.4375 380.301 7.76136C380.301 7.07955 380.425 6.48437 380.672 5.97585C380.922 5.46733 381.268 5.07244 381.712 4.79119C382.158 4.50994 382.676 4.36932 383.267 4.36932C383.858 4.36932 384.375 4.50994 384.818 4.79119C385.264 5.07244 385.611 5.46733 385.858 5.97585C386.108 6.48437 386.233 7.07955 386.233 7.76136C386.233 8.4375 386.108 9.02841 385.858 9.53409C385.611 10.0398 385.264 10.4332 384.818 10.7145C384.375 10.9957 383.858 11.1364 383.267 11.1364ZM383.267 10.233C383.716 10.233 384.085 10.1179 384.375 9.88778C384.665 9.65767 384.879 9.35511 385.018 8.98011C385.158 8.60511 385.227 8.19886 385.227 7.76136C385.227 7.32386 385.158 6.91619 385.018 6.53835C384.879 6.16051 384.665 5.85511 384.375 5.62216C384.085 5.3892 383.716 5.27273 383.267 5.27273C382.818 5.27273 382.449 5.3892 382.159 5.62216C381.869 5.85511 381.655 6.16051 381.516 6.53835C381.376 6.91619 381.307 7.32386 381.307 7.76136C381.307 8.19886 381.376 8.60511 381.516 8.98011C381.655 9.35511 381.869 9.65767 382.159 9.88778C382.449 10.1179 382.818 10.233 383.267 10.233ZM388.774 7.0625V11H387.768V4.45455H388.74V5.47727H388.825C388.978 5.14489 389.211 4.87784 389.524 4.67614C389.836 4.47159 390.24 4.36932 390.734 4.36932C391.177 4.36932 391.565 4.46023 391.897 4.64205C392.23 4.82102 392.488 5.09375 392.673 5.46023C392.858 5.82386 392.95 6.28409 392.95 6.84091V11H391.944V6.90909C391.944 6.39489 391.811 5.99432 391.544 5.70739C391.277 5.41761 390.91 5.27273 390.444 5.27273C390.123 5.27273 389.836 5.34233 389.583 5.48153C389.333 5.62074 389.136 5.82386 388.991 6.09091C388.846 6.35795 388.774 6.68182 388.774 7.0625ZM398.538 6.78977V7.72727H394.719V6.78977H398.538ZM399.076 3.21023V2.27273H405.621V3.21023H402.877V11H401.82V3.21023H399.076ZM408.121 7.0625V11H407.116V2.27273H408.121V5.47727H408.207C408.36 5.1392 408.59 4.87074 408.897 4.67188C409.207 4.47017 409.619 4.36932 410.133 4.36932C410.579 4.36932 410.969 4.45881 411.305 4.63778C411.64 4.81392 411.9 5.08523 412.085 5.4517C412.272 5.81534 412.366 6.27841 412.366 6.84091V11H411.36V6.90909C411.36 6.3892 411.225 5.98722 410.955 5.70312C410.688 5.41619 410.317 5.27273 409.843 5.27273C409.513 5.27273 409.218 5.34233 408.957 5.48153C408.698 5.62074 408.494 5.82386 408.343 6.09091C408.195 6.35795 408.121 6.68182 408.121 7.0625ZM418.331 8.32386V4.45455H419.336V11H418.331V9.89205H418.262C418.109 10.2244 417.87 10.5071 417.547 10.7401C417.223 10.9702 416.814 11.0852 416.319 11.0852C415.91 11.0852 415.547 10.9957 415.228 10.8168C414.91 10.6349 414.66 10.3622 414.478 9.99858C414.297 9.6321 414.206 9.17045 414.206 8.61364V4.45455H415.211V8.54545C415.211 9.02273 415.345 9.40341 415.612 9.6875C415.882 9.97159 416.225 10.1136 416.643 10.1136C416.893 10.1136 417.147 10.0497 417.406 9.92188C417.667 9.79403 417.886 9.59801 418.062 9.33381C418.241 9.0696 418.331 8.73295 418.331 8.32386ZM421.911 11.0682C421.701 11.0682 421.521 10.9929 421.37 10.8423C421.219 10.6918 421.144 10.5114 421.144 10.3011C421.144 10.0909 421.219 9.91051 421.37 9.75994C421.521 9.60937 421.701 9.53409 421.911 9.53409C422.121 9.53409 422.302 9.60937 422.452 9.75994C422.603 9.91051 422.678 10.0909 422.678 10.3011C422.678 10.4403 422.643 10.5682 422.572 10.6847C422.504 10.8011 422.411 10.8949 422.295 10.9659C422.181 11.0341 422.053 11.0682 421.911 11.0682ZM421.911 6.21023C421.701 6.21023 421.521 6.13494 421.37 5.98438C421.219 5.83381 421.144 5.65341 421.144 5.44318C421.144 5.23295 421.219 5.05256 421.37 4.90199C421.521 4.75142 421.701 4.67614 421.911 4.67614C422.121 4.67614 422.302 4.75142 422.452 4.90199C422.603 5.05256 422.678 5.23295 422.678 5.44318C422.678 5.58239 422.643 5.71023 422.572 5.8267C422.504 5.94318 422.411 6.03693 422.295 6.10795C422.181 6.17614 422.053 6.21023 421.911 6.21023ZM430.636 11.1193C430.051 11.1193 429.534 11.0156 429.085 10.8082C428.639 10.598 428.291 10.3097 428.041 9.94318C427.791 9.57386 427.668 9.15341 427.67 8.68182C427.668 8.3125 427.74 7.97159 427.888 7.65909C428.036 7.34375 428.237 7.08097 428.493 6.87074C428.751 6.65767 429.04 6.52273 429.358 6.46591V6.41477C428.94 6.30682 428.608 6.07244 428.361 5.71165C428.114 5.34801 427.991 4.93466 427.994 4.47159C427.991 4.02841 428.104 3.6321 428.331 3.28267C428.558 2.93324 428.871 2.65767 429.268 2.45597C429.669 2.25426 430.125 2.15341 430.636 2.15341C431.142 2.15341 431.594 2.25426 431.991 2.45597C432.389 2.65767 432.702 2.93324 432.929 3.28267C433.159 3.6321 433.276 4.02841 433.278 4.47159C433.276 4.93466 433.149 5.34801 432.899 5.71165C432.652 6.07244 432.324 6.30682 431.915 6.41477V6.46591C432.23 6.52273 432.514 6.65767 432.767 6.87074C433.02 7.08097 433.222 7.34375 433.372 7.65909C433.523 7.97159 433.599 8.3125 433.602 8.68182C433.599 9.15341 433.472 9.57386 433.219 9.94318C432.969 10.3097 432.621 10.598 432.175 10.8082C431.732 11.0156 431.219 11.1193 430.636 11.1193ZM430.636 10.1818C431.031 10.1818 431.372 10.1179 431.659 9.99006C431.946 9.86222 432.168 9.68182 432.324 9.44886C432.48 9.21591 432.56 8.94318 432.562 8.63068C432.56 8.30114 432.474 8.00994 432.307 7.7571C432.139 7.50426 431.911 7.3054 431.621 7.16051C431.334 7.01562 431.006 6.94318 430.636 6.94318C430.264 6.94318 429.932 7.01562 429.639 7.16051C429.349 7.3054 429.121 7.50426 428.953 7.7571C428.788 8.00994 428.707 8.30114 428.71 8.63068C428.707 8.94318 428.783 9.21591 428.936 9.44886C429.092 9.68182 429.315 9.86222 429.605 9.99006C429.895 10.1179 430.239 10.1818 430.636 10.1818ZM430.636 6.03977C430.949 6.03977 431.226 5.97727 431.467 5.85227C431.712 5.72727 431.903 5.55256 432.043 5.32812C432.182 5.10369 432.253 4.84091 432.256 4.53977C432.253 4.24432 432.183 3.98722 432.047 3.76847C431.911 3.54687 431.722 3.37642 431.48 3.2571C431.239 3.13494 430.957 3.07386 430.636 3.07386C430.31 3.07386 430.024 3.13494 429.78 3.2571C429.536 3.37642 429.347 3.54687 429.213 3.76847C429.08 3.98722 429.014 4.24432 429.017 4.53977C429.014 4.84091 429.081 5.10369 429.217 5.32812C429.357 5.55256 429.548 5.72727 429.793 5.85227C430.037 5.97727 430.318 6.03977 430.636 6.03977ZM435.985 9.88352C435.775 9.88352 435.595 9.80824 435.444 9.65767C435.294 9.5071 435.218 9.3267 435.218 9.11648C435.218 8.90625 435.294 8.72585 435.444 8.57528C435.595 8.42472 435.775 8.34943 435.985 8.34943C436.196 8.34943 436.376 8.42472 436.527 8.57528C436.677 8.72585 436.752 8.90625 436.752 9.11648C436.752 9.25568 436.717 9.38352 436.646 9.5C436.578 9.61648 436.485 9.71023 436.369 9.78125C436.255 9.84943 436.127 9.88352 435.985 9.88352ZM435.985 5.46875C435.775 5.46875 435.595 5.39347 435.444 5.2429C435.294 5.09233 435.218 4.91193 435.218 4.7017C435.218 4.49148 435.294 4.31108 435.444 4.16051C435.595 4.00994 435.775 3.93466 435.985 3.93466C436.196 3.93466 436.376 4.00994 436.527 4.16051C436.677 4.31108 436.752 4.49148 436.752 4.7017C436.752 4.84091 436.717 4.96875 436.646 5.08523C436.578 5.2017 436.485 5.29545 436.369 5.36648C436.255 5.43466 436.127 5.46875 435.985 5.46875ZM441.387 11.1193C440.745 11.1193 440.198 10.9446 439.746 10.5952C439.294 10.2429 438.949 9.73295 438.711 9.06534C438.472 8.39489 438.353 7.58523 438.353 6.63636C438.353 5.69318 438.472 4.88778 438.711 4.22017C438.952 3.54972 439.299 3.03835 439.75 2.68608C440.205 2.33097 440.75 2.15341 441.387 2.15341C442.023 2.15341 442.567 2.33097 443.019 2.68608C443.473 3.03835 443.82 3.54972 444.059 4.22017C444.3 4.88778 444.421 5.69318 444.421 6.63636C444.421 7.58523 444.301 8.39489 444.063 9.06534C443.824 9.73295 443.479 10.2429 443.027 10.5952C442.576 10.9446 442.029 11.1193 441.387 11.1193ZM441.387 10.1818C442.023 10.1818 442.517 9.875 442.87 9.26136C443.222 8.64773 443.398 7.77273 443.398 6.63636C443.398 5.88068 443.317 5.23722 443.155 4.70597C442.996 4.17472 442.766 3.76989 442.465 3.49148C442.167 3.21307 441.807 3.07386 441.387 3.07386C440.756 3.07386 440.263 3.38494 439.908 4.0071C439.553 4.62642 439.375 5.50284 439.375 6.63636C439.375 7.39205 439.455 8.03409 439.614 8.5625C439.773 9.09091 440.002 9.4929 440.3 9.76847C440.601 10.044 440.963 10.1818 441.387 10.1818ZM448.887 11.1193C448.245 11.1193 447.698 10.9446 447.246 10.5952C446.794 10.2429 446.449 9.73295 446.211 9.06534C445.972 8.39489 445.853 7.58523 445.853 6.63636C445.853 5.69318 445.972 4.88778 446.211 4.22017C446.452 3.54972 446.799 3.03835 447.25 2.68608C447.705 2.33097 448.25 2.15341 448.887 2.15341C449.523 2.15341 450.067 2.33097 450.519 2.68608C450.973 3.03835 451.32 3.54972 451.559 4.22017C451.8 4.88778 451.921 5.69318 451.921 6.63636C451.921 7.58523 451.801 8.39489 451.563 9.06534C451.324 9.73295 450.979 10.2429 450.527 10.5952C450.076 10.9446 449.529 11.1193 448.887 11.1193ZM448.887 10.1818C449.523 10.1818 450.017 9.875 450.37 9.26136C450.722 8.64773 450.898 7.77273 450.898 6.63636C450.898 5.88068 450.817 5.23722 450.655 4.70597C450.496 4.17472 450.266 3.76989 449.965 3.49148C449.667 3.21307 449.307 3.07386 448.887 3.07386C448.256 3.07386 447.763 3.38494 447.408 4.0071C447.053 4.62642 446.875 5.50284 446.875 6.63636C446.875 7.39205 446.955 8.03409 447.114 8.5625C447.273 9.09091 447.502 9.4929 447.8 9.76847C448.101 10.044 448.463 10.1818 448.887 10.1818ZM458.858 11.1534C458.444 11.1534 458.067 11.0753 457.729 10.919C457.391 10.7599 457.123 10.5312 456.924 10.233C456.725 9.93182 456.625 9.56818 456.625 9.14205C456.625 8.76705 456.699 8.46307 456.847 8.23011C456.995 7.99432 457.192 7.80966 457.439 7.67614C457.686 7.54261 457.959 7.44318 458.257 7.37784C458.559 7.30966 458.861 7.25568 459.165 7.21591C459.563 7.16477 459.885 7.12642 460.132 7.10085C460.382 7.07244 460.564 7.02557 460.678 6.96023C460.794 6.89489 460.853 6.78125 460.853 6.61932V6.58523C460.853 6.16477 460.738 5.83807 460.507 5.60511C460.28 5.37216 459.935 5.25568 459.472 5.25568C458.992 5.25568 458.615 5.3608 458.343 5.57102C458.07 5.78125 457.878 6.00568 457.767 6.24432L456.813 5.90341C456.983 5.50568 457.211 5.19602 457.495 4.97443C457.782 4.75 458.094 4.59375 458.432 4.50568C458.773 4.41477 459.108 4.36932 459.438 4.36932C459.648 4.36932 459.89 4.39489 460.162 4.44602C460.438 4.49432 460.703 4.59517 460.959 4.74858C461.218 4.90199 461.432 5.13352 461.603 5.44318C461.773 5.75284 461.858 6.16761 461.858 6.6875V11H460.853V10.1136H460.801C460.733 10.2557 460.62 10.4077 460.461 10.5696C460.301 10.7315 460.09 10.8693 459.826 10.983C459.561 11.0966 459.239 11.1534 458.858 11.1534ZM459.012 10.25C459.409 10.25 459.745 10.1719 460.017 10.0156C460.293 9.85938 460.5 9.65767 460.64 9.41051C460.782 9.16335 460.853 8.90341 460.853 8.63068V7.71023C460.81 7.76136 460.716 7.80824 460.571 7.85085C460.429 7.89062 460.265 7.92614 460.077 7.95739C459.892 7.9858 459.712 8.01136 459.536 8.03409C459.363 8.05398 459.222 8.07102 459.114 8.08523C458.853 8.11932 458.608 8.17472 458.381 8.25142C458.157 8.32528 457.975 8.4375 457.836 8.58807C457.699 8.7358 457.631 8.9375 457.631 9.19318C457.631 9.54261 457.76 9.80682 458.019 9.9858C458.28 10.1619 458.611 10.25 459.012 10.25ZM463.694 11V4.45455H464.665V5.47727H464.751C464.887 5.12784 465.107 4.85653 465.411 4.66335C465.715 4.46733 466.08 4.36932 466.506 4.36932C466.938 4.36932 467.298 4.46733 467.585 4.66335C467.874 4.85653 468.1 5.12784 468.262 5.47727H468.33C468.498 5.1392 468.749 4.87074 469.085 4.67188C469.42 4.47017 469.822 4.36932 470.29 4.36932C470.876 4.36932 471.354 4.55256 471.727 4.91903C472.099 5.28267 472.285 5.84943 472.285 6.61932V11H471.279V6.61932C471.279 6.13636 471.147 5.79119 470.883 5.58381C470.619 5.37642 470.308 5.27273 469.95 5.27273C469.489 5.27273 469.133 5.41193 468.88 5.69034C468.627 5.96591 468.501 6.31534 468.501 6.73864V11H467.478V6.51705C467.478 6.14489 467.357 5.84517 467.116 5.6179C466.874 5.38778 466.563 5.27273 466.183 5.27273C465.921 5.27273 465.677 5.34233 465.45 5.48153C465.225 5.62074 465.043 5.81392 464.904 6.06108C464.768 6.3054 464.7 6.58807 464.7 6.90909V11H463.694ZM480.345 4.45455V5.30682H476.953V4.45455H480.345ZM477.942 2.88636H478.947V9.125C478.947 9.40909 478.989 9.62216 479.071 9.7642C479.156 9.90341 479.264 9.99716 479.395 10.0455C479.528 10.0909 479.669 10.1136 479.817 10.1136C479.928 10.1136 480.018 10.108 480.089 10.0966C480.161 10.0824 480.217 10.071 480.26 10.0625L480.464 10.9659C480.396 10.9915 480.301 11.017 480.179 11.0426C480.057 11.071 479.902 11.0852 479.714 11.0852C479.43 11.0852 479.152 11.0241 478.879 10.902C478.609 10.7798 478.385 10.5938 478.206 10.3438C478.03 10.0938 477.942 9.77841 477.942 9.39773V2.88636ZM484.447 11.1364C483.856 11.1364 483.337 10.9957 482.891 10.7145C482.448 10.4332 482.102 10.0398 481.852 9.53409C481.604 9.02841 481.481 8.4375 481.481 7.76136C481.481 7.07955 481.604 6.48437 481.852 5.97585C482.102 5.46733 482.448 5.07244 482.891 4.79119C483.337 4.50994 483.856 4.36932 484.447 4.36932C485.038 4.36932 485.555 4.50994 485.998 4.79119C486.444 5.07244 486.79 5.46733 487.038 5.97585C487.288 6.48437 487.413 7.07955 487.413 7.76136C487.413 8.4375 487.288 9.02841 487.038 9.53409C486.79 10.0398 486.444 10.4332 485.998 10.7145C485.555 10.9957 485.038 11.1364 484.447 11.1364ZM484.447 10.233C484.896 10.233 485.265 10.1179 485.555 9.88778C485.844 9.65767 486.059 9.35511 486.198 8.98011C486.337 8.60511 486.407 8.19886 486.407 7.76136C486.407 7.32386 486.337 6.91619 486.198 6.53835C486.059 6.16051 485.844 5.85511 485.555 5.62216C485.265 5.3892 484.896 5.27273 484.447 5.27273C483.998 5.27273 483.629 5.3892 483.339 5.62216C483.049 5.85511 482.835 6.16051 482.695 6.53835C482.556 6.91619 482.487 7.32386 482.487 7.76136C482.487 8.19886 482.556 8.60511 482.695 8.98011C482.835 9.35511 483.049 9.65767 483.339 9.88778C483.629 10.1179 483.998 10.233 484.447 10.233ZM495.084 2.15341C495.442 2.15625 495.8 2.22443 496.158 2.35795C496.516 2.49148 496.843 2.71307 497.138 3.02273C497.434 3.32955 497.671 3.74858 497.85 4.27983C498.029 4.81108 498.118 5.47727 498.118 6.27841C498.118 7.05398 498.044 7.7429 497.897 8.34517C497.752 8.9446 497.542 9.45028 497.266 9.86222C496.993 10.2741 496.661 10.5866 496.269 10.7997C495.88 11.0128 495.439 11.1193 494.948 11.1193C494.459 11.1193 494.023 11.0227 493.64 10.8295C493.259 10.6335 492.946 10.3622 492.702 10.0156C492.461 9.66619 492.306 9.26136 492.238 8.80114H493.277C493.371 9.2017 493.557 9.53267 493.836 9.79403C494.117 10.0526 494.488 10.1818 494.948 10.1818C495.621 10.1818 496.152 9.88778 496.542 9.29972C496.934 8.71165 497.13 7.88068 497.13 6.80682H497.061C496.902 7.04545 496.713 7.25142 496.495 7.42472C496.276 7.59801 496.033 7.73153 495.766 7.82528C495.499 7.91903 495.215 7.96591 494.914 7.96591C494.414 7.96591 493.955 7.84233 493.537 7.59517C493.123 7.34517 492.79 7.00284 492.54 6.56818C492.293 6.13068 492.169 5.63068 492.169 5.06818C492.169 4.53409 492.289 4.04545 492.527 3.60227C492.769 3.15625 493.107 2.80114 493.542 2.53693C493.979 2.27273 494.493 2.14489 495.084 2.15341ZM495.084 3.09091C494.726 3.09091 494.404 3.1804 494.117 3.35938C493.833 3.53551 493.607 3.77415 493.439 4.07528C493.275 4.37358 493.192 4.70455 493.192 5.06818C493.192 5.43182 493.272 5.76278 493.431 6.06108C493.593 6.35653 493.813 6.59233 494.091 6.76847C494.373 6.94176 494.692 7.02841 495.05 7.02841C495.32 7.02841 495.571 6.97585 495.804 6.87074C496.037 6.76278 496.24 6.61648 496.414 6.43182C496.59 6.24432 496.728 6.03267 496.827 5.79688C496.926 5.55824 496.976 5.30966 496.976 5.05114C496.976 4.71023 496.894 4.39062 496.729 4.09233C496.567 3.79403 496.343 3.55256 496.056 3.3679C495.772 3.18324 495.448 3.09091 495.084 3.09091ZM500.544 9.88352C500.334 9.88352 500.153 9.80824 500.003 9.65767C499.852 9.5071 499.777 9.3267 499.777 9.11648C499.777 8.90625 499.852 8.72585 500.003 8.57528C500.153 8.42472 500.334 8.34943 500.544 8.34943C500.754 8.34943 500.935 8.42472 501.085 8.57528C501.236 8.72585 501.311 8.90625 501.311 9.11648C501.311 9.25568 501.276 9.38352 501.205 9.5C501.136 9.61648 501.044 9.71023 500.928 9.78125C500.814 9.84943 500.686 9.88352 500.544 9.88352ZM500.544 5.46875C500.334 5.46875 500.153 5.39347 500.003 5.2429C499.852 5.09233 499.777 4.91193 499.777 4.7017C499.777 4.49148 499.852 4.31108 500.003 4.16051C500.153 4.00994 500.334 3.93466 500.544 3.93466C500.754 3.93466 500.935 4.00994 501.085 4.16051C501.236 4.31108 501.311 4.49148 501.311 4.7017C501.311 4.84091 501.276 4.96875 501.205 5.08523C501.136 5.2017 501.044 5.29545 500.928 5.36648C500.814 5.43466 500.686 5.46875 500.544 5.46875ZM505.945 11.1193C505.303 11.1193 504.756 10.9446 504.305 10.5952C503.853 10.2429 503.508 9.73295 503.269 9.06534C503.031 8.39489 502.911 7.58523 502.911 6.63636C502.911 5.69318 503.031 4.88778 503.269 4.22017C503.511 3.54972 503.857 3.03835 504.309 2.68608C504.763 2.33097 505.309 2.15341 505.945 2.15341C506.582 2.15341 507.126 2.33097 507.577 2.68608C508.032 3.03835 508.379 3.54972 508.617 4.22017C508.859 4.88778 508.979 5.69318 508.979 6.63636C508.979 7.58523 508.86 8.39489 508.621 9.06534C508.383 9.73295 508.038 10.2429 507.586 10.5952C507.134 10.9446 506.587 11.1193 505.945 11.1193ZM505.945 10.1818C506.582 10.1818 507.076 9.875 507.428 9.26136C507.781 8.64773 507.957 7.77273 507.957 6.63636C507.957 5.88068 507.876 5.23722 507.714 4.70597C507.555 4.17472 507.325 3.76989 507.023 3.49148C506.725 3.21307 506.366 3.07386 505.945 3.07386C505.315 3.07386 504.822 3.38494 504.467 4.0071C504.112 4.62642 503.934 5.50284 503.934 6.63636C503.934 7.39205 504.013 8.03409 504.173 8.5625C504.332 9.09091 504.56 9.4929 504.859 9.76847C505.16 10.044 505.522 10.1818 505.945 10.1818ZM513.445 11.1193C512.803 11.1193 512.256 10.9446 511.805 10.5952C511.353 10.2429 511.008 9.73295 510.769 9.06534C510.531 8.39489 510.411 7.58523 510.411 6.63636C510.411 5.69318 510.531 4.88778 510.769 4.22017C511.011 3.54972 511.357 3.03835 511.809 2.68608C512.263 2.33097 512.809 2.15341 513.445 2.15341C514.082 2.15341 514.626 2.33097 515.077 2.68608C515.532 3.03835 515.879 3.54972 516.117 4.22017C516.359 4.88778 516.479 5.69318 516.479 6.63636C516.479 7.58523 516.36 8.39489 516.121 9.06534C515.883 9.73295 515.538 10.2429 515.086 10.5952C514.634 10.9446 514.087 11.1193 513.445 11.1193ZM513.445 10.1818C514.082 10.1818 514.576 9.875 514.928 9.26136C515.281 8.64773 515.457 7.77273 515.457 6.63636C515.457 5.88068 515.376 5.23722 515.214 4.70597C515.055 4.17472 514.825 3.76989 514.523 3.49148C514.225 3.21307 513.866 3.07386 513.445 3.07386C512.815 3.07386 512.322 3.38494 511.967 4.0071C511.612 4.62642 511.434 5.50284 511.434 6.63636C511.434 7.39205 511.513 8.03409 511.673 8.5625C511.832 9.09091 512.06 9.4929 512.359 9.76847C512.66 10.044 513.022 10.1818 513.445 10.1818ZM521.491 13.4545V4.45455H522.462V5.49432H522.582C522.656 5.38068 522.758 5.2358 522.888 5.05966C523.022 4.88068 523.212 4.72159 523.46 4.58239C523.71 4.44034 524.048 4.36932 524.474 4.36932C525.025 4.36932 525.511 4.5071 525.931 4.78267C526.352 5.05824 526.68 5.44886 526.915 5.95455C527.151 6.46023 527.269 7.05682 527.269 7.74432C527.269 8.4375 527.151 9.03835 526.915 9.54688C526.68 10.0526 526.353 10.4446 525.935 10.723C525.518 10.9986 525.036 11.1364 524.491 11.1364C524.07 11.1364 523.734 11.0668 523.481 10.9276C523.228 10.7855 523.033 10.625 522.897 10.446C522.761 10.2642 522.656 10.1136 522.582 9.99432H522.496V13.4545H521.491ZM522.479 7.72727C522.479 8.22159 522.552 8.65767 522.697 9.03551C522.842 9.41051 523.053 9.70455 523.332 9.91761C523.61 10.1278 523.951 10.233 524.354 10.233C524.775 10.233 525.126 10.1222 525.407 9.90057C525.691 9.67614 525.904 9.375 526.046 8.99716C526.191 8.61648 526.263 8.19318 526.263 7.72727C526.263 7.26705 526.192 6.85227 526.05 6.48295C525.911 6.1108 525.7 5.81676 525.415 5.60085C525.134 5.3821 524.781 5.27273 524.354 5.27273C523.945 5.27273 523.602 5.37642 523.323 5.58381C523.045 5.78835 522.835 6.07528 522.692 6.4446C522.55 6.81108 522.479 7.23864 522.479 7.72727ZM528.803 11V4.45455H529.775V5.47727H529.86C529.996 5.12784 530.217 4.85653 530.521 4.66335C530.825 4.46733 531.19 4.36932 531.616 4.36932C532.048 4.36932 532.407 4.46733 532.694 4.66335C532.984 4.85653 533.21 5.12784 533.371 5.47727H533.44C533.607 5.1392 533.859 4.87074 534.194 4.67188C534.529 4.47017 534.931 4.36932 535.4 4.36932C535.985 4.36932 536.464 4.55256 536.836 4.91903C537.208 5.28267 537.394 5.84943 537.394 6.61932V11H536.388V6.61932C536.388 6.13636 536.256 5.79119 535.992 5.58381C535.728 5.37642 535.417 5.27273 535.059 5.27273C534.599 5.27273 534.242 5.41193 533.989 5.69034C533.737 5.96591 533.61 6.31534 533.61 6.73864V11H532.587V6.51705C532.587 6.14489 532.467 5.84517 532.225 5.6179C531.984 5.38778 531.673 5.27273 531.292 5.27273C531.031 5.27273 530.786 5.34233 530.559 5.48153C530.335 5.62074 530.153 5.81392 530.013 6.06108C529.877 6.3054 529.809 6.58807 529.809 6.90909V11H528.803Z" fill="#F2EFE6"/>
</svg>
