<svg width="20" height="20" viewBox="0 0 20 20" fill="none" xmlns="http://www.w3.org/2000/svg">
<rect width="20" height="20" rx="2" fill="#627089"/>
<mask id="mask0_2_83" style="mask-type:alpha" maskUnits="userSpaceOnUse" x="3" y="4" width="14" height="12">
<path d="M7.32922 13.2291L4.43755 10.3375C4.28186 10.1814 4.07048 10.0937 3.85005 10.0937C3.62962 10.0937 3.41824 10.1814 3.26255 10.3375C2.93755 10.6625 2.93755 11.1875 3.26255 11.5125L6.74588 14.9958C7.07088 15.3208 7.59588 15.3208 7.92088 14.9958L16.7375 6.17914C17.0625 5.85414 17.0625 5.32914 16.7375 5.00414C16.5819 4.8481 16.3705 4.76041 16.15 4.76041C15.9296 4.76041 15.7182 4.8481 15.5625 5.00414L7.32922 13.2291Z" fill="black"/>
</mask>
<g mask="url(#mask0_2_83)">
<rect width="20" height="20" fill="white"/>
</g>
</svg>
