<svg width="24" height="24" viewBox="0 0 24 24" fill="none" xmlns="http://www.w3.org/2000/svg">
<path d="M12 21C16.9706 21 21 16.9706 21 12C21 7.02944 16.9706 3 12 3C7.02944 3 3 7.02944 3 12C3 16.9706 7.02944 21 12 21Z" fill="#F2EFE6"/>
<path d="M10.353 16.7473C14.3445 16.7473 16.527 13.4398 16.527 10.5733C16.527 10.4788 16.527 10.3843 16.5225 10.2943C16.9455 9.98834 17.3145 9.60584 17.607 9.16934C17.22 9.34034 16.8015 9.45734 16.3605 9.51134C16.8105 9.24134 17.1525 8.81834 17.3145 8.30984C16.896 8.55734 16.4325 8.73734 15.9375 8.83634C15.5415 8.41334 14.979 8.15234 14.3535 8.15234C13.1565 8.15234 12.1845 9.12434 12.1845 10.3213C12.1845 10.4923 12.2025 10.6588 12.243 10.8163C10.4385 10.7263 8.841 9.86234 7.77 8.54834C7.5855 8.86784 7.4775 9.24134 7.4775 9.63734C7.4775 10.3888 7.86 11.0548 8.445 11.4418C8.0895 11.4328 7.7565 11.3338 7.464 11.1718C7.464 11.1808 7.464 11.1898 7.464 11.1988C7.464 12.2518 8.211 13.1248 9.2055 13.3273C9.0255 13.3768 8.832 13.4038 8.634 13.4038C8.4945 13.4038 8.3595 13.3903 8.2245 13.3633C8.499 14.2273 9.3 14.8528 10.2495 14.8708C9.507 15.4513 8.571 15.7978 7.554 15.7978C7.3785 15.7978 7.2075 15.7888 7.0365 15.7663C7.986 16.3873 9.129 16.7473 10.353 16.7473Z" fill="#163651"/>
</svg>
